<mxfile host="Electron" agent="Mozilla/5.0 (Windows NT 10.0; Win64; x64) AppleWebKit/537.36 (KHTML, like Gecko) draw.io/28.1.2 Chrome/138.0.7204.243 Electron/37.4.0 Safari/537.36" version="28.1.2" pages="4">
  <diagram name="sd1" id="IWZ-TFcVHsoyMiyPc86V">
    <mxGraphModel dx="786" dy="516" grid="1" gridSize="10" guides="1" tooltips="1" connect="1" arrows="1" fold="1" page="1" pageScale="1" pageWidth="827" pageHeight="1169" math="0" shadow="0">
      <root>
        <mxCell id="0" />
        <mxCell id="1" parent="0" />
        <mxCell id="P6dh5o8VVApVXlqabSNn-1" value="Network Usernames" style="rounded=0;whiteSpace=wrap;html=1;" parent="1" vertex="1">
          <mxGeometry x="360" y="200" width="120" height="60" as="geometry" />
        </mxCell>
        <mxCell id="P6dh5o8VVApVXlqabSNn-6" style="edgeStyle=orthogonalEdgeStyle;rounded=0;orthogonalLoop=1;jettySize=auto;html=1;exitX=0.75;exitY=1;exitDx=0;exitDy=0;endArrow=block;endFill=1;" parent="1" source="P6dh5o8VVApVXlqabSNn-2" edge="1">
          <mxGeometry relative="1" as="geometry">
            <mxPoint x="290" y="450" as="targetPoint" />
          </mxGeometry>
        </mxCell>
        <mxCell id="xsGAxnVcNUjGU7uHR6Sg-3" style="edgeStyle=orthogonalEdgeStyle;rounded=0;orthogonalLoop=1;jettySize=auto;html=1;exitX=0.5;exitY=0;exitDx=0;exitDy=0;endArrow=none;endFill=0;" parent="1" source="P6dh5o8VVApVXlqabSNn-2" edge="1">
          <mxGeometry relative="1" as="geometry">
            <mxPoint x="260" y="290" as="targetPoint" />
          </mxGeometry>
        </mxCell>
        <mxCell id="P6dh5o8VVApVXlqabSNn-2" value="Get user data" style="rounded=0;whiteSpace=wrap;html=1;" parent="1" vertex="1">
          <mxGeometry x="200" y="320" width="120" height="60" as="geometry" />
        </mxCell>
        <mxCell id="P6dh5o8VVApVXlqabSNn-5" style="edgeStyle=orthogonalEdgeStyle;rounded=0;orthogonalLoop=1;jettySize=auto;html=1;exitX=0.5;exitY=0;exitDx=0;exitDy=0;entryX=0.5;entryY=1;entryDx=0;entryDy=0;endArrow=none;endFill=0;" parent="1" source="P6dh5o8VVApVXlqabSNn-3" target="P6dh5o8VVApVXlqabSNn-1" edge="1">
          <mxGeometry relative="1" as="geometry" />
        </mxCell>
        <mxCell id="P6dh5o8VVApVXlqabSNn-7" style="edgeStyle=orthogonalEdgeStyle;rounded=0;orthogonalLoop=1;jettySize=auto;html=1;exitX=0.25;exitY=1;exitDx=0;exitDy=0;endArrow=none;endFill=0;startArrow=block;startFill=1;" parent="1" source="P6dh5o8VVApVXlqabSNn-3" edge="1">
          <mxGeometry relative="1" as="geometry">
            <mxPoint x="390" y="410" as="targetPoint" />
          </mxGeometry>
        </mxCell>
        <mxCell id="P6dh5o8VVApVXlqabSNn-8" style="edgeStyle=orthogonalEdgeStyle;rounded=0;orthogonalLoop=1;jettySize=auto;html=1;exitX=0.75;exitY=1;exitDx=0;exitDy=0;endArrow=block;endFill=1;" parent="1" source="P6dh5o8VVApVXlqabSNn-3" edge="1">
          <mxGeometry relative="1" as="geometry">
            <mxPoint x="450" y="450" as="targetPoint" />
          </mxGeometry>
        </mxCell>
        <mxCell id="P6dh5o8VVApVXlqabSNn-3" value="Create usernames" style="rounded=0;whiteSpace=wrap;html=1;" parent="1" vertex="1">
          <mxGeometry x="360" y="320" width="120" height="60" as="geometry" />
        </mxCell>
        <mxCell id="P6dh5o8VVApVXlqabSNn-9" style="edgeStyle=orthogonalEdgeStyle;rounded=0;orthogonalLoop=1;jettySize=auto;html=1;exitX=0.25;exitY=1;exitDx=0;exitDy=0;endArrow=none;endFill=0;startArrow=block;startFill=1;" parent="1" source="P6dh5o8VVApVXlqabSNn-4" edge="1">
          <mxGeometry relative="1" as="geometry">
            <mxPoint x="550" y="410" as="targetPoint" />
          </mxGeometry>
        </mxCell>
        <mxCell id="xsGAxnVcNUjGU7uHR6Sg-2" style="edgeStyle=orthogonalEdgeStyle;rounded=0;orthogonalLoop=1;jettySize=auto;html=1;exitX=0.5;exitY=0;exitDx=0;exitDy=0;endArrow=none;endFill=0;" parent="1" source="P6dh5o8VVApVXlqabSNn-4" edge="1">
          <mxGeometry relative="1" as="geometry">
            <mxPoint x="580" y="290" as="targetPoint" />
          </mxGeometry>
        </mxCell>
        <mxCell id="P6dh5o8VVApVXlqabSNn-4" value="Store user data" style="rounded=0;whiteSpace=wrap;html=1;" parent="1" vertex="1">
          <mxGeometry x="520" y="320" width="120" height="60" as="geometry" />
        </mxCell>
        <mxCell id="xsGAxnVcNUjGU7uHR6Sg-1" value="" style="endArrow=none;html=1;rounded=0;" parent="1" edge="1">
          <mxGeometry width="50" height="50" relative="1" as="geometry">
            <mxPoint x="260" y="290" as="sourcePoint" />
            <mxPoint x="580" y="290" as="targetPoint" />
          </mxGeometry>
        </mxCell>
        <mxCell id="xsGAxnVcNUjGU7uHR6Sg-4" value="firstNames()&lt;br&gt;lastNames()" style="text;html=1;strokeColor=none;fillColor=none;align=center;verticalAlign=top;whiteSpace=wrap;rounded=0;" parent="1" vertex="1">
          <mxGeometry x="250" y="450" width="80" height="50" as="geometry" />
        </mxCell>
        <mxCell id="xsGAxnVcNUjGU7uHR6Sg-5" value="firstNames()&lt;br&gt;lastNames()" style="text;html=1;strokeColor=none;fillColor=none;align=center;verticalAlign=top;whiteSpace=wrap;rounded=0;" parent="1" vertex="1">
          <mxGeometry x="350" y="410" width="80" height="50" as="geometry" />
        </mxCell>
        <mxCell id="xsGAxnVcNUjGU7uHR6Sg-6" value="usernames()" style="text;html=1;strokeColor=none;fillColor=none;align=center;verticalAlign=top;whiteSpace=wrap;rounded=0;" parent="1" vertex="1">
          <mxGeometry x="414" y="450" width="80" height="30" as="geometry" />
        </mxCell>
        <mxCell id="xsGAxnVcNUjGU7uHR6Sg-7" value="lastNames()&lt;br&gt;firstNames()&lt;br&gt;usernames()" style="text;html=1;strokeColor=none;fillColor=none;align=center;verticalAlign=top;whiteSpace=wrap;rounded=0;" parent="1" vertex="1">
          <mxGeometry x="510" y="410" width="80" height="50" as="geometry" />
        </mxCell>
      </root>
    </mxGraphModel>
  </diagram>
  <diagram id="yhsLzykTdpMJcFgOxbX1" name="Refinement">
    <mxGraphModel dx="1038" dy="796" grid="1" gridSize="10" guides="1" tooltips="1" connect="1" arrows="1" fold="1" page="1" pageScale="1" pageWidth="1169" pageHeight="827" math="0" shadow="0">
      <root>
        <mxCell id="0" />
        <mxCell id="1" parent="0" />
        <mxCell id="Q13cm1b-_p5OIdwz1PUi-25" style="edgeStyle=orthogonalEdgeStyle;rounded=0;orthogonalLoop=1;jettySize=auto;html=1;exitX=0.5;exitY=1;exitDx=0;exitDy=0;endArrow=none;endFill=0;" edge="1" parent="1" source="-pgn7WBBdYvSYfB1qXow-1">
          <mxGeometry relative="1" as="geometry">
            <mxPoint x="539.6470588235295" y="320" as="targetPoint" />
          </mxGeometry>
        </mxCell>
        <mxCell id="-pgn7WBBdYvSYfB1qXow-1" value="Create usernames" style="rounded=0;whiteSpace=wrap;html=1;" vertex="1" parent="1">
          <mxGeometry x="480" y="230" width="120" height="60" as="geometry" />
        </mxCell>
        <mxCell id="Q13cm1b-_p5OIdwz1PUi-26" style="edgeStyle=orthogonalEdgeStyle;rounded=0;orthogonalLoop=1;jettySize=auto;html=1;exitX=0.5;exitY=0;exitDx=0;exitDy=0;endArrow=none;endFill=0;" edge="1" parent="1" source="Q13cm1b-_p5OIdwz1PUi-1">
          <mxGeometry relative="1" as="geometry">
            <mxPoint x="459.6470588235295" y="320" as="targetPoint" />
          </mxGeometry>
        </mxCell>
        <mxCell id="Q13cm1b-_p5OIdwz1PUi-1" value="Loop for each employee&amp;nbsp;" style="ellipse;whiteSpace=wrap;html=1;" vertex="1" parent="1">
          <mxGeometry x="400" y="354" width="120" height="60" as="geometry" />
        </mxCell>
        <mxCell id="Q13cm1b-_p5OIdwz1PUi-29" style="edgeStyle=orthogonalEdgeStyle;rounded=0;orthogonalLoop=1;jettySize=auto;html=1;exitX=0.5;exitY=0;exitDx=0;exitDy=0;endArrow=none;endFill=0;" edge="1" parent="1" source="Q13cm1b-_p5OIdwz1PUi-4">
          <mxGeometry relative="1" as="geometry">
            <mxPoint x="300" y="440" as="targetPoint" />
          </mxGeometry>
        </mxCell>
        <mxCell id="Q13cm1b-_p5OIdwz1PUi-4" value="Set number to random value between 3 and 5" style="rounded=0;whiteSpace=wrap;html=1;" vertex="1" parent="1">
          <mxGeometry x="240" y="470" width="120" height="60" as="geometry" />
        </mxCell>
        <mxCell id="Q13cm1b-_p5OIdwz1PUi-9" style="edgeStyle=orthogonalEdgeStyle;rounded=0;orthogonalLoop=1;jettySize=auto;html=1;exitX=0.25;exitY=1;exitDx=0;exitDy=0;endArrow=block;endFill=1;" edge="1" parent="1" source="Q13cm1b-_p5OIdwz1PUi-11">
          <mxGeometry relative="1" as="geometry">
            <mxPoint x="590" y="600" as="targetPoint" />
          </mxGeometry>
        </mxCell>
        <mxCell id="Q13cm1b-_p5OIdwz1PUi-10" style="edgeStyle=orthogonalEdgeStyle;rounded=0;orthogonalLoop=1;jettySize=auto;html=1;exitX=0.75;exitY=1;exitDx=0;exitDy=0;endArrow=none;endFill=0;startArrow=block;startFill=1;" edge="1" parent="1" source="Q13cm1b-_p5OIdwz1PUi-11">
          <mxGeometry relative="1" as="geometry">
            <mxPoint x="650" y="560" as="targetPoint" />
          </mxGeometry>
        </mxCell>
        <mxCell id="Q13cm1b-_p5OIdwz1PUi-31" style="edgeStyle=orthogonalEdgeStyle;rounded=0;orthogonalLoop=1;jettySize=auto;html=1;exitX=0.5;exitY=0;exitDx=0;exitDy=0;endArrow=none;endFill=0;" edge="1" parent="1" source="Q13cm1b-_p5OIdwz1PUi-11">
          <mxGeometry relative="1" as="geometry">
            <mxPoint x="620" y="440" as="targetPoint" />
          </mxGeometry>
        </mxCell>
        <mxCell id="Q13cm1b-_p5OIdwz1PUi-11" value="Get 8 - number of&lt;br&gt;characters from left&lt;br&gt;of last name" style="rounded=0;whiteSpace=wrap;html=1;" vertex="1" parent="1">
          <mxGeometry x="560" y="470" width="120" height="60" as="geometry" />
        </mxCell>
        <mxCell id="Q13cm1b-_p5OIdwz1PUi-12" value="lastName&lt;br&gt;8 - number" style="text;html=1;strokeColor=none;fillColor=none;align=center;verticalAlign=top;whiteSpace=wrap;rounded=0;" vertex="1" parent="1">
          <mxGeometry x="550" y="600" width="80" height="40" as="geometry" />
        </mxCell>
        <mxCell id="Q13cm1b-_p5OIdwz1PUi-13" value="substring2" style="text;html=1;strokeColor=none;fillColor=none;align=center;verticalAlign=top;whiteSpace=wrap;rounded=0;" vertex="1" parent="1">
          <mxGeometry x="610" y="560" width="80" height="40" as="geometry" />
        </mxCell>
        <mxCell id="Q13cm1b-_p5OIdwz1PUi-16" style="edgeStyle=orthogonalEdgeStyle;rounded=0;orthogonalLoop=1;jettySize=auto;html=1;exitX=0.25;exitY=1;exitDx=0;exitDy=0;endArrow=block;endFill=1;" edge="1" parent="1" source="Q13cm1b-_p5OIdwz1PUi-18">
          <mxGeometry relative="1" as="geometry">
            <mxPoint x="430" y="600" as="targetPoint" />
          </mxGeometry>
        </mxCell>
        <mxCell id="Q13cm1b-_p5OIdwz1PUi-17" style="edgeStyle=orthogonalEdgeStyle;rounded=0;orthogonalLoop=1;jettySize=auto;html=1;exitX=0.75;exitY=1;exitDx=0;exitDy=0;endArrow=none;endFill=0;startArrow=block;startFill=1;" edge="1" parent="1" source="Q13cm1b-_p5OIdwz1PUi-18">
          <mxGeometry relative="1" as="geometry">
            <mxPoint x="490" y="560" as="targetPoint" />
          </mxGeometry>
        </mxCell>
        <mxCell id="Q13cm1b-_p5OIdwz1PUi-30" style="edgeStyle=orthogonalEdgeStyle;rounded=0;orthogonalLoop=1;jettySize=auto;html=1;exitX=0.5;exitY=0;exitDx=0;exitDy=0;entryX=0.5;entryY=1;entryDx=0;entryDy=0;endArrow=none;endFill=0;" edge="1" parent="1" source="Q13cm1b-_p5OIdwz1PUi-18" target="Q13cm1b-_p5OIdwz1PUi-1">
          <mxGeometry relative="1" as="geometry" />
        </mxCell>
        <mxCell id="Q13cm1b-_p5OIdwz1PUi-18" value="Get number of&lt;br&gt;characters from left&lt;br&gt;of first name" style="rounded=0;whiteSpace=wrap;html=1;" vertex="1" parent="1">
          <mxGeometry x="400" y="470" width="120" height="60" as="geometry" />
        </mxCell>
        <mxCell id="Q13cm1b-_p5OIdwz1PUi-19" value="firstName&lt;br&gt;number" style="text;html=1;strokeColor=none;fillColor=none;align=center;verticalAlign=top;whiteSpace=wrap;rounded=0;" vertex="1" parent="1">
          <mxGeometry x="390" y="600" width="80" height="40" as="geometry" />
        </mxCell>
        <mxCell id="Q13cm1b-_p5OIdwz1PUi-20" value="substring1" style="text;html=1;strokeColor=none;fillColor=none;align=center;verticalAlign=top;whiteSpace=wrap;rounded=0;" vertex="1" parent="1">
          <mxGeometry x="450" y="560" width="80" height="40" as="geometry" />
        </mxCell>
        <mxCell id="Q13cm1b-_p5OIdwz1PUi-32" style="edgeStyle=orthogonalEdgeStyle;rounded=0;orthogonalLoop=1;jettySize=auto;html=1;exitX=0.5;exitY=0;exitDx=0;exitDy=0;endArrow=none;endFill=0;" edge="1" parent="1" source="Q13cm1b-_p5OIdwz1PUi-21">
          <mxGeometry relative="1" as="geometry">
            <mxPoint x="779.6470588235295" y="440" as="targetPoint" />
          </mxGeometry>
        </mxCell>
        <mxCell id="Q13cm1b-_p5OIdwz1PUi-21" value="Create username:&lt;br&gt;substring1 + substring2" style="rounded=0;whiteSpace=wrap;html=1;" vertex="1" parent="1">
          <mxGeometry x="720" y="470" width="120" height="60" as="geometry" />
        </mxCell>
        <mxCell id="Q13cm1b-_p5OIdwz1PUi-27" style="edgeStyle=orthogonalEdgeStyle;rounded=0;orthogonalLoop=1;jettySize=auto;html=1;exitX=0.5;exitY=0;exitDx=0;exitDy=0;endArrow=none;endFill=0;" edge="1" parent="1" source="Q13cm1b-_p5OIdwz1PUi-22">
          <mxGeometry relative="1" as="geometry">
            <mxPoint x="619.6470588235295" y="320" as="targetPoint" />
          </mxGeometry>
        </mxCell>
        <mxCell id="Q13cm1b-_p5OIdwz1PUi-22" value="Return usernames" style="rounded=0;whiteSpace=wrap;html=1;" vertex="1" parent="1">
          <mxGeometry x="560" y="354" width="120" height="60" as="geometry" />
        </mxCell>
        <mxCell id="Q13cm1b-_p5OIdwz1PUi-23" value="" style="endArrow=none;html=1;rounded=0;" edge="1" parent="1">
          <mxGeometry width="50" height="50" relative="1" as="geometry">
            <mxPoint x="300" y="440" as="sourcePoint" />
            <mxPoint x="780" y="440" as="targetPoint" />
          </mxGeometry>
        </mxCell>
        <mxCell id="Q13cm1b-_p5OIdwz1PUi-24" value="" style="endArrow=none;html=1;rounded=0;" edge="1" parent="1">
          <mxGeometry width="50" height="50" relative="1" as="geometry">
            <mxPoint x="460" y="320" as="sourcePoint" />
            <mxPoint x="620" y="320" as="targetPoint" />
          </mxGeometry>
        </mxCell>
      </root>
    </mxGraphModel>
  </diagram>
  <diagram id="7Z0Zl8xgGF0xDp3YTb2K" name="sd2">
    <mxGraphModel dx="786" dy="516" grid="1" gridSize="10" guides="1" tooltips="1" connect="1" arrows="1" fold="1" page="1" pageScale="1" pageWidth="827" pageHeight="1169" math="0" shadow="0">
      <root>
        <mxCell id="0" />
        <mxCell id="1" parent="0" />
        <mxCell id="E6mN9G5fb98xOhmSHKBP-26" style="edgeStyle=none;rounded=0;orthogonalLoop=1;jettySize=auto;html=1;exitX=0.5;exitY=1;exitDx=0;exitDy=0;startArrow=none;startFill=0;endArrow=none;endFill=0;" edge="1" parent="1" source="E6mN9G5fb98xOhmSHKBP-1">
          <mxGeometry relative="1" as="geometry">
            <mxPoint x="460" y="220" as="targetPoint" />
          </mxGeometry>
        </mxCell>
        <mxCell id="E6mN9G5fb98xOhmSHKBP-1" value="Generate username" style="rounded=0;whiteSpace=wrap;html=1;" vertex="1" parent="1">
          <mxGeometry x="400" y="120" width="120" height="60" as="geometry" />
        </mxCell>
        <mxCell id="E6mN9G5fb98xOhmSHKBP-10" style="edgeStyle=none;rounded=0;orthogonalLoop=1;jettySize=auto;html=1;exitX=0.75;exitY=1;exitDx=0;exitDy=0;endArrow=block;endFill=1;" edge="1" parent="1" source="E6mN9G5fb98xOhmSHKBP-3">
          <mxGeometry relative="1" as="geometry">
            <mxPoint x="410" y="380" as="targetPoint" />
          </mxGeometry>
        </mxCell>
        <mxCell id="E6mN9G5fb98xOhmSHKBP-15" style="edgeStyle=none;rounded=0;orthogonalLoop=1;jettySize=auto;html=1;exitX=0.5;exitY=0;exitDx=0;exitDy=0;startArrow=none;startFill=0;endArrow=none;endFill=0;" edge="1" parent="1" source="E6mN9G5fb98xOhmSHKBP-3">
          <mxGeometry relative="1" as="geometry">
            <mxPoint x="380" y="220" as="targetPoint" />
          </mxGeometry>
        </mxCell>
        <mxCell id="E6mN9G5fb98xOhmSHKBP-3" value="Get surname from user" style="rounded=0;whiteSpace=wrap;html=1;" vertex="1" parent="1">
          <mxGeometry x="320" y="260" width="120" height="60" as="geometry" />
        </mxCell>
        <mxCell id="E6mN9G5fb98xOhmSHKBP-11" style="edgeStyle=none;rounded=0;orthogonalLoop=1;jettySize=auto;html=1;exitX=0.25;exitY=1;exitDx=0;exitDy=0;endArrow=none;endFill=0;startArrow=block;startFill=1;" edge="1" parent="1" source="E6mN9G5fb98xOhmSHKBP-4">
          <mxGeometry relative="1" as="geometry">
            <mxPoint x="510" y="420" as="targetPoint" />
          </mxGeometry>
        </mxCell>
        <mxCell id="E6mN9G5fb98xOhmSHKBP-12" style="edgeStyle=none;rounded=0;orthogonalLoop=1;jettySize=auto;html=1;exitX=0.75;exitY=1;exitDx=0;exitDy=0;endArrow=block;endFill=1;" edge="1" parent="1" source="E6mN9G5fb98xOhmSHKBP-4">
          <mxGeometry relative="1" as="geometry">
            <mxPoint x="570" y="380" as="targetPoint" />
          </mxGeometry>
        </mxCell>
        <mxCell id="E6mN9G5fb98xOhmSHKBP-16" style="edgeStyle=none;rounded=0;orthogonalLoop=1;jettySize=auto;html=1;exitX=0.5;exitY=0;exitDx=0;exitDy=0;startArrow=none;startFill=0;endArrow=none;endFill=0;" edge="1" parent="1" source="E6mN9G5fb98xOhmSHKBP-4">
          <mxGeometry relative="1" as="geometry">
            <mxPoint x="540" y="220" as="targetPoint" />
          </mxGeometry>
        </mxCell>
        <mxCell id="E6mN9G5fb98xOhmSHKBP-4" value="Generate username" style="rounded=0;whiteSpace=wrap;html=1;" vertex="1" parent="1">
          <mxGeometry x="480" y="260" width="120" height="60" as="geometry" />
        </mxCell>
        <mxCell id="E6mN9G5fb98xOhmSHKBP-13" style="edgeStyle=none;rounded=0;orthogonalLoop=1;jettySize=auto;html=1;exitX=0.25;exitY=1;exitDx=0;exitDy=0;endArrow=none;endFill=0;startArrow=block;startFill=1;" edge="1" parent="1" source="E6mN9G5fb98xOhmSHKBP-5">
          <mxGeometry relative="1" as="geometry">
            <mxPoint x="670" y="420" as="targetPoint" />
          </mxGeometry>
        </mxCell>
        <mxCell id="E6mN9G5fb98xOhmSHKBP-17" style="edgeStyle=none;rounded=0;orthogonalLoop=1;jettySize=auto;html=1;exitX=0.5;exitY=0;exitDx=0;exitDy=0;startArrow=none;startFill=0;endArrow=none;endFill=0;" edge="1" parent="1" source="E6mN9G5fb98xOhmSHKBP-5">
          <mxGeometry relative="1" as="geometry">
            <mxPoint x="700" y="220" as="targetPoint" />
          </mxGeometry>
        </mxCell>
        <mxCell id="E6mN9G5fb98xOhmSHKBP-5" value="Display username" style="rounded=0;whiteSpace=wrap;html=1;" vertex="1" parent="1">
          <mxGeometry x="640" y="260" width="120" height="60" as="geometry" />
        </mxCell>
        <mxCell id="E6mN9G5fb98xOhmSHKBP-9" style="edgeStyle=none;rounded=0;orthogonalLoop=1;jettySize=auto;html=1;exitX=0.75;exitY=1;exitDx=0;exitDy=0;endArrow=block;endFill=1;" edge="1" parent="1" source="E6mN9G5fb98xOhmSHKBP-6">
          <mxGeometry relative="1" as="geometry">
            <mxPoint x="250" y="380" as="targetPoint" />
          </mxGeometry>
        </mxCell>
        <mxCell id="E6mN9G5fb98xOhmSHKBP-14" style="edgeStyle=none;rounded=0;orthogonalLoop=1;jettySize=auto;html=1;exitX=0.5;exitY=0;exitDx=0;exitDy=0;startArrow=none;startFill=0;endArrow=none;endFill=0;" edge="1" parent="1" source="E6mN9G5fb98xOhmSHKBP-6">
          <mxGeometry relative="1" as="geometry">
            <mxPoint x="220" y="220" as="targetPoint" />
          </mxGeometry>
        </mxCell>
        <mxCell id="E6mN9G5fb98xOhmSHKBP-6" value="Get forename from user" style="rounded=0;whiteSpace=wrap;html=1;" vertex="1" parent="1">
          <mxGeometry x="160" y="260" width="120" height="60" as="geometry" />
        </mxCell>
        <mxCell id="E6mN9G5fb98xOhmSHKBP-20" value="" style="endArrow=none;html=1;rounded=0;edgeStyle=orthogonalEdgeStyle;endFill=0;" edge="1" parent="1">
          <mxGeometry width="50" height="50" relative="1" as="geometry">
            <mxPoint x="220" y="220" as="sourcePoint" />
            <mxPoint x="700" y="220" as="targetPoint" />
          </mxGeometry>
        </mxCell>
        <mxCell id="E6mN9G5fb98xOhmSHKBP-21" value="forename" style="text;html=1;strokeColor=none;fillColor=none;align=left;verticalAlign=middle;whiteSpace=wrap;rounded=0;" vertex="1" parent="1">
          <mxGeometry x="260" y="360" width="40" height="20" as="geometry" />
        </mxCell>
        <mxCell id="E6mN9G5fb98xOhmSHKBP-22" value="surname" style="text;html=1;strokeColor=none;fillColor=none;align=left;verticalAlign=middle;whiteSpace=wrap;rounded=0;" vertex="1" parent="1">
          <mxGeometry x="420" y="360" width="40" height="20" as="geometry" />
        </mxCell>
        <mxCell id="E6mN9G5fb98xOhmSHKBP-23" value="forename&lt;br&gt;surname" style="text;html=1;strokeColor=none;fillColor=none;align=left;verticalAlign=middle;whiteSpace=wrap;rounded=0;" vertex="1" parent="1">
          <mxGeometry x="520" y="400" width="40" height="20" as="geometry" />
        </mxCell>
        <mxCell id="E6mN9G5fb98xOhmSHKBP-24" value="username" style="text;html=1;strokeColor=none;fillColor=none;align=left;verticalAlign=middle;whiteSpace=wrap;rounded=0;" vertex="1" parent="1">
          <mxGeometry x="580" y="360" width="40" height="20" as="geometry" />
        </mxCell>
        <mxCell id="E6mN9G5fb98xOhmSHKBP-25" value="username" style="text;html=1;strokeColor=none;fillColor=none;align=left;verticalAlign=middle;whiteSpace=wrap;rounded=0;" vertex="1" parent="1">
          <mxGeometry x="680" y="400" width="40" height="20" as="geometry" />
        </mxCell>
      </root>
    </mxGraphModel>
  </diagram>
  <diagram id="KLHIy8xmbjcvFjKmyCsD" name="sd3">
    <mxGraphModel dx="786" dy="516" grid="1" gridSize="10" guides="1" tooltips="1" connect="1" arrows="1" fold="1" page="1" pageScale="1" pageWidth="827" pageHeight="1169" math="0" shadow="0">
      <root>
        <mxCell id="0" />
        <mxCell id="1" parent="0" />
        <mxCell id="2DZAcMJ5nWPX6h-8VQ5H-45" style="edgeStyle=orthogonalEdgeStyle;rounded=0;orthogonalLoop=1;jettySize=auto;html=1;exitX=0.5;exitY=1;exitDx=0;exitDy=0;startArrow=none;startFill=0;endArrow=none;endFill=0;" edge="1" parent="1" source="9G8mnU0gTCohlVKaIapV-1">
          <mxGeometry relative="1" as="geometry">
            <mxPoint x="340" y="200" as="targetPoint" />
          </mxGeometry>
        </mxCell>
        <mxCell id="9G8mnU0gTCohlVKaIapV-1" value="Network usernames program" style="rounded=0;whiteSpace=wrap;html=1;" vertex="1" parent="1">
          <mxGeometry x="280" y="120" width="120" height="60" as="geometry" />
        </mxCell>
        <mxCell id="2DZAcMJ5nWPX6h-8VQ5H-25" style="edgeStyle=orthogonalEdgeStyle;rounded=0;orthogonalLoop=1;jettySize=auto;html=1;exitX=0.5;exitY=0;exitDx=0;exitDy=0;startArrow=none;startFill=0;endArrow=none;endFill=0;" edge="1" parent="1" source="9G8mnU0gTCohlVKaIapV-2">
          <mxGeometry relative="1" as="geometry">
            <mxPoint x="179.52941176470586" y="200" as="targetPoint" />
          </mxGeometry>
        </mxCell>
        <mxCell id="9G8mnU0gTCohlVKaIapV-2" value="Get pupils&#39; data" style="rounded=0;whiteSpace=wrap;html=1;" vertex="1" parent="1">
          <mxGeometry x="120" y="220" width="120" height="60" as="geometry" />
        </mxCell>
        <mxCell id="2DZAcMJ5nWPX6h-8VQ5H-27" style="edgeStyle=orthogonalEdgeStyle;rounded=0;orthogonalLoop=1;jettySize=auto;html=1;exitX=0.5;exitY=0;exitDx=0;exitDy=0;startArrow=none;startFill=0;endArrow=none;endFill=0;" edge="1" parent="1" source="9G8mnU0gTCohlVKaIapV-3">
          <mxGeometry relative="1" as="geometry">
            <mxPoint x="340" y="200" as="targetPoint" />
            <Array as="points">
              <mxPoint x="260" y="200" />
            </Array>
          </mxGeometry>
        </mxCell>
        <mxCell id="9G8mnU0gTCohlVKaIapV-3" value="Generate network usernames" style="rounded=0;whiteSpace=wrap;html=1;" vertex="1" parent="1">
          <mxGeometry x="200" y="410.42" width="120" height="60" as="geometry" />
        </mxCell>
        <mxCell id="2DZAcMJ5nWPX6h-8VQ5H-28" style="edgeStyle=orthogonalEdgeStyle;rounded=0;orthogonalLoop=1;jettySize=auto;html=1;exitX=0.5;exitY=0;exitDx=0;exitDy=0;startArrow=none;startFill=0;endArrow=none;endFill=0;" edge="1" parent="1" source="9G8mnU0gTCohlVKaIapV-4">
          <mxGeometry relative="1" as="geometry">
            <mxPoint x="420" y="200" as="targetPoint" />
          </mxGeometry>
        </mxCell>
        <mxCell id="9G8mnU0gTCohlVKaIapV-4" value="Display summary data" style="rounded=0;whiteSpace=wrap;html=1;" vertex="1" parent="1">
          <mxGeometry x="360" y="410" width="120" height="60" as="geometry" />
        </mxCell>
        <mxCell id="9G8mnU0gTCohlVKaIapV-5" value="" style="endArrow=block;html=1;endFill=1;entryX=0.5;entryY=0;entryDx=0;entryDy=0;exitX=0.75;exitY=1;exitDx=0;exitDy=0;" edge="1" parent="1" source="9G8mnU0gTCohlVKaIapV-2" target="2DZAcMJ5nWPX6h-8VQ5H-1">
          <mxGeometry width="50" height="50" relative="1" as="geometry">
            <mxPoint x="260" y="290" as="sourcePoint" />
            <mxPoint x="239" y="340" as="targetPoint" />
          </mxGeometry>
        </mxCell>
        <mxCell id="2DZAcMJ5nWPX6h-8VQ5H-1" value="firstNames()&lt;br&gt;lastNames()&lt;br&gt;ages()" style="text;html=1;strokeColor=none;fillColor=none;align=center;verticalAlign=top;whiteSpace=wrap;rounded=0;" vertex="1" parent="1">
          <mxGeometry x="160" y="340" width="100" height="60" as="geometry" />
        </mxCell>
        <mxCell id="2DZAcMJ5nWPX6h-8VQ5H-2" value="" style="endArrow=none;html=1;endFill=0;startArrow=block;startFill=1;entryX=0.5;entryY=0;entryDx=0;entryDy=0;exitX=0.25;exitY=1;exitDx=0;exitDy=0;" edge="1" parent="1" source="9G8mnU0gTCohlVKaIapV-3" target="2DZAcMJ5nWPX6h-8VQ5H-3">
          <mxGeometry width="50" height="50" relative="1" as="geometry">
            <mxPoint x="270" y="490.41999999999996" as="sourcePoint" />
            <mxPoint x="230" y="490.4200000000001" as="targetPoint" />
          </mxGeometry>
        </mxCell>
        <mxCell id="2DZAcMJ5nWPX6h-8VQ5H-3" value="firstNames()&lt;br&gt;lastNames()&lt;br&gt;ages()" style="text;html=1;strokeColor=none;fillColor=none;align=center;verticalAlign=top;whiteSpace=wrap;rounded=0;" vertex="1" parent="1">
          <mxGeometry x="180" y="490" width="100" height="60" as="geometry" />
        </mxCell>
        <mxCell id="2DZAcMJ5nWPX6h-8VQ5H-4" value="" style="endArrow=block;html=1;endFill=1;exitX=0.75;exitY=1;exitDx=0;exitDy=0;entryX=0.5;entryY=0;entryDx=0;entryDy=0;" edge="1" parent="1" source="9G8mnU0gTCohlVKaIapV-3" target="2DZAcMJ5nWPX6h-8VQ5H-5">
          <mxGeometry width="50" height="50" relative="1" as="geometry">
            <mxPoint x="350" y="490.41999999999996" as="sourcePoint" />
            <mxPoint x="370" y="520.42" as="targetPoint" />
          </mxGeometry>
        </mxCell>
        <mxCell id="2DZAcMJ5nWPX6h-8VQ5H-5" value="usernames()" style="text;html=1;strokeColor=none;fillColor=none;align=center;verticalAlign=top;whiteSpace=wrap;rounded=0;" vertex="1" parent="1">
          <mxGeometry x="240" y="530.42" width="100" height="20" as="geometry" />
        </mxCell>
        <mxCell id="2DZAcMJ5nWPX6h-8VQ5H-44" style="edgeStyle=orthogonalEdgeStyle;rounded=0;orthogonalLoop=1;jettySize=auto;html=1;exitX=0.5;exitY=0;exitDx=0;exitDy=0;startArrow=none;startFill=0;endArrow=none;endFill=0;" edge="1" parent="1" source="2DZAcMJ5nWPX6h-8VQ5H-7">
          <mxGeometry relative="1" as="geometry">
            <mxPoint x="379.52941176470586" y="200" as="targetPoint" />
          </mxGeometry>
        </mxCell>
        <mxCell id="2DZAcMJ5nWPX6h-8VQ5H-7" value="Find age of oldest pupil" style="rounded=0;whiteSpace=wrap;html=1;" vertex="1" parent="1">
          <mxGeometry x="280" y="220" width="120" height="60" as="geometry" />
        </mxCell>
        <mxCell id="2DZAcMJ5nWPX6h-8VQ5H-8" value="" style="endArrow=none;html=1;endFill=0;startArrow=block;startFill=1;entryX=0.5;entryY=0;entryDx=0;entryDy=0;exitX=0.25;exitY=1;exitDx=0;exitDy=0;" edge="1" parent="1" source="2DZAcMJ5nWPX6h-8VQ5H-7" target="2DZAcMJ5nWPX6h-8VQ5H-9">
          <mxGeometry width="50" height="50" relative="1" as="geometry">
            <mxPoint x="280" y="300" as="sourcePoint" />
            <mxPoint x="320" y="340" as="targetPoint" />
          </mxGeometry>
        </mxCell>
        <mxCell id="2DZAcMJ5nWPX6h-8VQ5H-9" value="ages()" style="text;html=1;strokeColor=none;fillColor=none;align=center;verticalAlign=top;whiteSpace=wrap;rounded=0;" vertex="1" parent="1">
          <mxGeometry x="260" y="300" width="100" height="30" as="geometry" />
        </mxCell>
        <mxCell id="2DZAcMJ5nWPX6h-8VQ5H-10" value="" style="endArrow=block;html=1;endFill=1;exitX=0.75;exitY=1;exitDx=0;exitDy=0;entryX=0.5;entryY=0;entryDx=0;entryDy=0;" edge="1" parent="1" source="2DZAcMJ5nWPX6h-8VQ5H-7" target="2DZAcMJ5nWPX6h-8VQ5H-11">
          <mxGeometry width="50" height="50" relative="1" as="geometry">
            <mxPoint x="400.43999999999994" y="279.58000000000004" as="sourcePoint" />
            <mxPoint x="450" y="330" as="targetPoint" />
          </mxGeometry>
        </mxCell>
        <mxCell id="2DZAcMJ5nWPX6h-8VQ5H-11" value="oldest" style="text;html=1;strokeColor=none;fillColor=none;align=center;verticalAlign=top;whiteSpace=wrap;rounded=0;" vertex="1" parent="1">
          <mxGeometry x="320" y="340" width="100" height="20" as="geometry" />
        </mxCell>
        <mxCell id="2DZAcMJ5nWPX6h-8VQ5H-12" value="" style="endArrow=none;html=1;endFill=0;startArrow=block;startFill=1;exitX=0.25;exitY=1;exitDx=0;exitDy=0;entryX=0.5;entryY=0;entryDx=0;entryDy=0;" edge="1" parent="1" source="9G8mnU0gTCohlVKaIapV-4" target="2DZAcMJ5nWPX6h-8VQ5H-13">
          <mxGeometry width="50" height="50" relative="1" as="geometry">
            <mxPoint x="390" y="480.00000000000006" as="sourcePoint" />
            <mxPoint x="390" y="500" as="targetPoint" />
          </mxGeometry>
        </mxCell>
        <mxCell id="2DZAcMJ5nWPX6h-8VQ5H-13" value="firstNames()&lt;br&gt;lastNames()&lt;br&gt;ages()&lt;br&gt;oldest" style="text;html=1;strokeColor=none;fillColor=none;align=center;verticalAlign=top;whiteSpace=wrap;rounded=0;" vertex="1" parent="1">
          <mxGeometry x="340" y="490" width="100" height="70" as="geometry" />
        </mxCell>
        <mxCell id="2DZAcMJ5nWPX6h-8VQ5H-29" style="edgeStyle=orthogonalEdgeStyle;rounded=0;orthogonalLoop=1;jettySize=auto;html=1;exitX=0.5;exitY=0;exitDx=0;exitDy=0;startArrow=none;startFill=0;endArrow=none;endFill=0;" edge="1" parent="1" source="2DZAcMJ5nWPX6h-8VQ5H-18">
          <mxGeometry relative="1" as="geometry">
            <mxPoint x="500" y="200" as="targetPoint" />
          </mxGeometry>
        </mxCell>
        <mxCell id="2DZAcMJ5nWPX6h-8VQ5H-18" value="Write data to file" style="rounded=0;whiteSpace=wrap;html=1;" vertex="1" parent="1">
          <mxGeometry x="440" y="214.79000000000005" width="120" height="60" as="geometry" />
        </mxCell>
        <mxCell id="2DZAcMJ5nWPX6h-8VQ5H-19" value="" style="endArrow=none;html=1;endFill=0;startArrow=block;startFill=1;exitX=0.25;exitY=1;exitDx=0;exitDy=0;entryX=0.5;entryY=0;entryDx=0;entryDy=0;" edge="1" parent="1" source="2DZAcMJ5nWPX6h-8VQ5H-18" target="2DZAcMJ5nWPX6h-8VQ5H-20">
          <mxGeometry width="50" height="50" relative="1" as="geometry">
            <mxPoint x="470" y="284.7900000000001" as="sourcePoint" />
            <mxPoint x="470" y="300" as="targetPoint" />
          </mxGeometry>
        </mxCell>
        <mxCell id="2DZAcMJ5nWPX6h-8VQ5H-20" value="usernames()&lt;br&gt;firstNames()&lt;br&gt;lastNames()" style="text;html=1;strokeColor=none;fillColor=none;align=center;verticalAlign=top;whiteSpace=wrap;rounded=0;" vertex="1" parent="1">
          <mxGeometry x="420" y="299.5799999999999" width="100" height="60.42" as="geometry" />
        </mxCell>
        <mxCell id="2DZAcMJ5nWPX6h-8VQ5H-24" value="" style="endArrow=none;html=1;" edge="1" parent="1">
          <mxGeometry width="50" height="50" relative="1" as="geometry">
            <mxPoint x="180" y="200" as="sourcePoint" />
            <mxPoint x="500" y="200" as="targetPoint" />
          </mxGeometry>
        </mxCell>
      </root>
    </mxGraphModel>
  </diagram>
</mxfile>
